<?xml version="1.0" encoding="UTF-8" standalone="no"?><svg height="660" viewBox="-300 -300 600 660" width="600" xmlns="http://www.w3.org/2000/svg" xmlns:xlink="http://www.w3.org/1999/xlink"><radialGradient id="a" cx="-80" cy="-80" gradientUnits="userSpaceOnUse" r="405"><stop offset="0" stop-color="#fff" stop-opacity=".31"/><stop offset=".19" stop-color="#fff" stop-opacity=".25"/><stop offset=".6" stop-color="#6b6b6b" stop-opacity=".125"/><stop offset="1" stop-opacity=".125"/></radialGradient><path d="m-298.5-298.50003h597v258.543296c0 286.247934-298.5 398.456734-298.5 398.456734s-298.5-112.2088-298.5-398.456734z" fill="#e20909"/><g id="b" stroke-width=".71108" transform="matrix(1.4048637 0 0 1.4077585 -210.72919 -391.32944)"><path d="m253.4888 175.49962 8.28453 73.00114 8.28452-73.00114zm-24.83812 0 8.28452 73.00114 8.28452-73.00114zm-24.83913 0 8.28452 73.00114 8.28452-73.00114zm-24.83813 0 8.28453 73.00114 8.28452-73.00114zm-24.83911 0 8.28451 73.00114 8.28451-73.00114zm-24.83814 0 8.28452 73.00114 8.28452-73.00114zm-24.83913 0 8.28452 73.00114 8.28453-73.00114zm-24.838127 0 8.28452 73.00114 8.28452-73.00114zm-24.839127 0 8.284518 73.00114 8.284518-73.00114zm-24.838137 0 8.284527 73.00115 8.284527-73.00115z" style="fill:#fcef3c;fill-rule:evenodd;stroke:#000;stroke-width:2.133241;stroke-linecap:round;stroke-linejoin:round"/><path d="m149.99976 93.890954a25.570529 25.586697 0 0 0 -25.57052 25.586696 25.570529 25.586697 0 0 0 25.57052 25.5867 25.570529 25.586697 0 0 0 25.57053-25.5867 25.570529 25.586697 0 0 0 -25.57053-25.586696zm0 10.751856a14.825466 14.83484 0 0 1 14.82547 14.83484 14.825466 14.83484 0 0 1 -14.82547 14.83484 14.825466 14.83484 0 0 1 -14.82546-14.83484 14.825466 14.83484 0 0 1 14.82546-14.83484z" fill="#fcef3c" stroke="#000" stroke-linecap="round" stroke-linejoin="round" stroke-width="2.133241"/><path d="m26.499115 175.49962.06783-29.50015 31.503009-25.00013h183.859596l31.50301 25.00013.0678 29.50015z" style="fill:#fcef3c;fill-rule:evenodd;stroke:#000;stroke-width:2.133241;stroke-linecap:round;stroke-linejoin:round"/><path d="m160.84938 147.49945c0 5.99603-4.86057 10.86235-10.84956 10.86235-5.98898 0-10.84969-4.86632-10.84969-10.86235s4.86071-10.8623 10.84969-10.8623c5.98899 0 10.84956 4.86627 10.84956 10.8623z" fill="none" stroke="#000" stroke-linecap="round" stroke-linejoin="round" stroke-width="2.133241"/><path d="m35.689553 166.99958v-16.00009l27.438579-22.00011h173.743238l27.43858 22.00011v16.00009z" fill="none" stroke="#000" stroke-linecap="round" stroke-linejoin="round" stroke-width="2.133241"/></g><use height="100%" transform="translate(.000002 260)" width="100%" xlink:href="#b"/><path d="m-298.5-298.50003h597v258.543296c0 286.247934-298.5 398.456734-298.5 398.456734s-298.5-112.2088-298.5-398.456734z" fill="url(#a)"/><path d="m-298.5-298.50001h597v258.502973c0 286.203287-298.5 398.394577-298.5 398.394577s-298.5-112.19129-298.5-398.394577z" fill="none" stroke="#000" stroke-width="3"/></svg>